<svg xmlns="http://www.w3.org/2000/svg" viewBox="0 0 538.29 289.32"><defs><style>.cls-1{fill:#f26522;}.cls-2{fill:#00aeef;opacity:0.87;}.cls-3{fill:#fff200;}.cls-4,.cls-5{fill:#ec008c;}.cls-4{opacity:0.84;}</style></defs><title>Asset 1</title><g id="Layer_2" data-name="Layer 2"><g id="Layer_1-2" data-name="Layer 1"><path class="cls-1" d="M155.21,22.72,63.78,150.89H44.59L88.39,12.78h21.42C119.69,24.64,141.74,25.08,155.21,22.72Z"/><path class="cls-2" d="M517.48,139.43h20.81c-16.84,26.19-56.8,74.3-80.89,106C281.65,230.35,108.25,262,0,289.32l15.16-51.67c88.32-77.2,191.58-131.26,290.48-173.31L206.47,189.56c170.53-38.67,93.87-33,294.38-38.87C502.14,150.67,517.48,139.43,517.48,139.43Z"/><path class="cls-3" d="M155.21,22.72s39.17-7.59,155.53-16.48c2.37-.18,4.7-.34,7.07-.47C402.5,1.1,466.28,0,466.28,0l-9.22,30.13s-48.77,20.15-63.78,29.23C371,72.86,323.55,102,300.53,116.52c-13.59,8.61-40.58,26.21-53.24,36.15-10.82,8.5-40.82,36.89-40.82,36.89L305.64,64.34Z"/><path class="cls-4" d="M305.64,64.34s-53.49,8.74-71,13.2c-28.14,7.16-85.17,21.7-110.46,36-6.65,3.75-18.51,8.35-28.42,14.5a341.22,341.22,0,0,0-32,22.87L155.21,22.72"/><path class="cls-5" d="M386.37,235.43c-5.13-4.45-15.73-12.92-21.13-17-4.41-3.36-18-12.95-18-12.95s8.39-7.15,11.57-9c4.26-2.43,13.59-5.67,18.23-7.25,5.13-1.76,20.54-6.95,20.54-6.95l-3.52-9.57s-20.48,6.82-27,9.89-25,14.68-25,14.68,4.54-16.94,6.73-22.35c1.83-4.52,8.95-17.32,8.95-17.32l-13.09-4.53-11.66,32.65-6.95,24.93s-4.65,3.49-9.38,7.28c-3.76,3-7.45,6.56-9.84,6.29-1.62-.19-4.25-.34-5.93-2.32-2.16-2.54-3.21-7.19-3.56-9.27-.71-4.28,2.52-12.46,4.88-16.1,1.53-2.33,6.71-6.6,9.16-7.94S322.7,186,322.7,186l2.28-9.14s-8.43-1.79-15.85,1.54c-4.16,1.86-11.6,7.52-14.57,11-2.34,2.73-6.78,12.66-6.78,12.66a13.23,13.23,0,0,0-2.94-4.5,25.93,25.93,0,0,0-5.78-4.6c-2.52-1.36-12.37-3.94-12.37-3.94v-3.78s4.46-7.9,5.29-10.47c.65-2,1.65-5.08.77-7s-4.65-4.05-6.59-4.55c-3.43-.86-14.54,2.56-14.54,2.56l-25.32,8.95-23,11.67v-7.56l-12.1,7.05-1,12.58L173.8,209.81l-15.25,10.65.49,13.8,29.1-21.53-.81,23.42-9.72,6.76.54,13.16,7.56-6.68-1.35,34.32,15.13-1.89,1.89-45.4s8.94,0,11.76.83c3.23.94,9.62,2.52,12.56,4.23,4.05,2.34,11.4,8.24,14.84,11.42,5.41,5,19.75,21.89,19.75,21.89l10.26-8.18-10.26-14s6.28.75,8.27.16c1.76-.52,4.85-2.88,6.23-4.09a41.58,41.58,0,0,0,6.77-8.57c1.24-2.29,3.92-11,3.92-11s1.37,5.6,3.88,7.77c1.11,1,3.77,2.86,5.25,2.84a17,17,0,0,0,5.47-1.08c6-2.6,22.35-15.24,22.35-15.24l-8.37,47.83,13.78,1.89s2.3-19.79,3.35-26.35c.84-5.21,2.72-15.6,4-20.72.87-3.48,4.26-13.73,4.26-13.73s15.25,10.86,20.18,14.68c4.67,3.62,13.76,11.15,18.24,15,6.94,6,27.24,24.55,27.24,24.55l7.29-6.95S393.09,241.25,386.37,235.43ZM251.53,209c-.92,2.44-2.83,7.67-3.06,9.44-.29,2.18-1.25,7.81-1.54,10-.45,3.48.92,11.28.92,11.28s-8.92-6.72-12.1-8.63-13.33-6.71-13.33-6.71,10.63-5.39,14.33-7.78c2.68-1.73,9.44-7.38,12-9.54a1.75,1.75,0,0,1,2.77,1.95Zm.14-19a38.6,38.6,0,0,1-4.27,4.47s-7.49,7.27-15.21,13.21c-5.7,4.38-11.77,7.6-13.8,8.93-4.63,3-16.64,10.46-16.64,10.46l.45-24.4s17.73-10.86,23.88-14.05c2.74-1.42,11.25-5.07,11.25-5.07s6.82-2.28,9.22-1.74c1.68.38,4.92,2.4,5.63,4A5.07,5.07,0,0,1,251.67,190Zm23,43.17c-1.44,3.08-5.5,9.28-8.55,10.56-2,.83-5.46-1.73-6.49-3.59-1.46-2.65-.9-10.86-.64-13.87a110.57,110.57,0,0,1,3.78-16.34s1.88-6.67,4-7.9c2.83-1.68,6.12,3.63,7.44,5.82s2.76,8,2.78,10.56C277,222.15,276.29,229.74,274.7,233.15Z"/><g id="Layer_3" data-name="Layer 3"><path class="cls-5" d="M427.93,168.15l-36.42,12a6.2,6.2,0,0,0-3.9,4.45l-5.88,22.54c.85,5.58,4.93,9.71,9.79,9.92l23,1a16.54,16.54,0,0,1,11.93,6.21l3.52,4.23,5,10.71c1.63,3.45-.06,7.74-3.36,8.58l-58.31,14.48,7.2,10.65,54.72-15,11.79-4.59c3.59-1.39,5.38-6.07,3.87-10.1l-3.11-8.32-5.91-15.65a17.79,17.79,0,0,0-4.53-6.81l-.67-.62a27.79,27.79,0,0,0-11.35-6.43l-1.81-.5a21.85,21.85,0,0,0-8.08-.71l-19.07,1.89c-4.87.48-4.88-3.49-6.15-9l.6-6.14a6.56,6.56,0,0,1,4.87-6l46.63-9.6v-11.5Z"/></g></g></g></svg>